<?xml version="1.0" encoding="iso-8859-1"?>
<!-- Generator: Adobe Illustrator 19.0.0, SVG Export Plug-In . SVG Version: 6.00 Build 0)  -->
<svg version="1.1" id="Layer_1" xmlns="http://www.w3.org/2000/svg" xmlns:xlink="http://www.w3.org/1999/xlink" x="0px" y="0px"
	 viewBox="0 0 496 496" style="enable-background:new 0 0 496 496;" xml:space="preserve">
<path style="fill:#FF9100;" d="M496,320.8c0,96.8-78.4,175.2-175.2,175.2H175.2C78.4,496,0,417.6,0,320.8V175.2
	C0,78.4,78.4,0,175.2,0h145.6C417.6,0,496,78.4,496,175.2V320.8z"/>
<path style="fill:#FF7900;" d="M0,175.2C0,78.4,78.4,0,175.2,0h145.6C417.6,0,496,78.4,496,175.2v145.6
	c0,96.8-78.4,175.2-175.2,175.2"/>
<g>
	<path style="fill:#FF6700;" d="M320.8,0C417.6,0,496,78.4,496,175.2v145.6c0,96.8-78.4,175.2-175.2,175.2"/>
	<path style="fill:#FF6700;" d="M303.2,274.4c-4.8-4.8-12-4.8-16.8,0l-27.2,27.2V192.8c0-6.4-5.6-12-12-12s-12,4.8-12,12v108
		l-26.4-26.4c-4.8-4.8-12-4.8-16.8,0s-4.8,12,0,16.8l46.4,46.4c2.4,2.4,5.6,3.2,8,3.2s5.6-0.8,8-3.2l46.4-46.4
		C307.2,286.4,307.2,278.4,303.2,274.4z"/>
</g>
<path style="fill:#FFFFFF;" d="M303.2,260.8c-4.8-4.8-12-4.8-16.8,0L260,288V180c0-6.4-5.6-12-12-12s-12,4.8-12,12v108l-26.4-26.4
	c-4.8-4.8-12-4.8-16.8,0s-4.8,12,0,16.8l46.4,46.4c2.4,2.4,5.6,3.2,8,3.2s5.6-0.8,8-3.2l46.4-46.4
	C307.2,272.8,307.2,265.6,303.2,260.8z"/>
<g>
</g>
<g>
</g>
<g>
</g>
<g>
</g>
<g>
</g>
<g>
</g>
<g>
</g>
<g>
</g>
<g>
</g>
<g>
</g>
<g>
</g>
<g>
</g>
<g>
</g>
<g>
</g>
<g>
</g>
</svg>
